<svg width="134" height="154" xmlns="http://www.w3.org/2000/svg" xmlns:xlink="http://www.w3.org/1999/xlink" viewBox="0 0 134.1 154"><defs><path id="a" d="M32.1 52.9c-2.3 1.4-3.7 3.9-3.7 6.6v34.9c0 2.7 1.4 5.2 3.7 6.6L63 120c2.5 1.5 5.6 1.5 8 0l30.9-18.9c2.3-1.4 3.7-3.9 3.7-6.6V59.6c0-2.7-1.4-5.2-3.7-6.6L71.1 34c-2.5-1.5-5.6-1.5-8 0l-31 18.9zm-2.7-4.4l30.9-18.9c4.1-2.5 9.3-2.5 13.4 0l30.9 18.9c3.8 2.3 6.2 6.5 6.2 11.1v34.9c0 4.5-2.3 8.7-6.2 11.1l-30.9 18.9c-4.1 2.5-9.3 2.5-13.4 0l-30.9-18.9c-3.8-2.3-6.2-6.5-6.2-11.1V59.6c0-4.5 2.4-8.7 6.2-11.1z"/></defs><clipPath id="b"><use xlink:href="#a" overflow="visible"/></clipPath><g clip-path="url(#b)"><defs><path id="c" d="M-511.7-321.9h1523.1V820.4H-511.7z"/></defs><clipPath id="d"><use xlink:href="#c" overflow="visible"/></clipPath><path clip-path="url(#d)" fill="#4970b6" d="M21.3 25.2h91.4v103.6H21.3z"/></g><g><defs><path id="e" d="M64.5 78l-19.1-9c-1.3-.6-1.8-2.1-1.2-3.4.6-1.3 2.1-1.9 3.4-1.2L67 73.5l19.5-9.2c1.3-.6 2.8 0 3.4 1.3.6 1.3 0 2.8-1.2 3.4l-19.1 9v19.7c0 1.4-1.2 2.6-2.6 2.6-1.4 0-2.6-1.2-2.6-2.6V78z"/></defs><clipPath id="f"><use xlink:href="#e" overflow="visible"/></clipPath><g clip-path="url(#f)"><defs><path id="g" d="M-511.7-321.9h1523.1V820.4H-511.7z"/></defs><clipPath id="h"><use xlink:href="#g" overflow="visible"/></clipPath><path clip-path="url(#h)" fill="#c8c9d9" d="M41.6 61.8h50.9v40.4H41.6z"/></g></g></svg>