<svg version="1.1" id="Livello_1" xmlns="http://www.w3.org/2000/svg" xmlns:xlink="http://www.w3.org/1999/xlink" x="0" y="0" viewBox="0 0 720.5 249.9" xml:space="preserve"><style>.st0{fill:#1c1d29}.st1{font-family:&apos;Helvetica&apos;}.st2{font-size:80px}</style><text transform="translate(-3.554 232.184)"><tspan x="0" y="0" class="st0 st1 st2" letter-spacing="-1">Cor</tspan><tspan x="124.6" y="0" class="st0 st1 st2">e Design System</tspan></text><defs><path id="SVGID_1_" d="M296.3 39.6c-3.3 2-5.3 5.6-5.3 9.5V99c0 3.9 2 7.5 5.3 9.5l44.2 27c3.5 2.2 8 2.2 11.5 0l44.2-27c3.3-2 5.3-5.6 5.3-9.5V49.1c0-3.9-2-7.5-5.3-9.5l-44.2-27c-3.5-2.2-8-2.2-11.5 0l-44.2 27zm-3.8-6.3l44.2-27c5.9-3.6 13.3-3.6 19.1 0l44.2 27c5.5 3.4 8.8 9.3 8.8 15.8V99c0 6.5-3.4 12.4-8.8 15.8l-44.2 27c-5.9 3.6-13.3 3.6-19.1 0l-44.2-27c-5.5-3.4-8.8-9.3-8.8-15.8V49.1c-.1-6.4 3.3-12.4 8.8-15.8z"/></defs><clipPath id="SVGID_2_"><use xlink:href="#SVGID_1_" overflow="visible"/></clipPath><g clip-path="url(#SVGID_2_)"><defs><path id="SVGID_3_" d="M-481.3-496.2h2177.7V1137H-481.3z"/></defs><clipPath id="SVGID_4_"><use xlink:href="#SVGID_3_" overflow="visible"/></clipPath><path clip-path="url(#SVGID_4_)" fill="#4970b6" d="M280.9 0h130.7v148.1H280.9z"/></g><g><defs><path id="SVGID_5_" d="M342.6 75.4l-27.3-12.8c-1.8-.9-2.6-3.1-1.8-4.9.9-1.9 3.1-2.7 4.9-1.8L346.2 69l27.9-13.1c1.8-.9 4-.1 4.9 1.8.9 1.9.1 4.1-1.8 4.9l-27.3 12.8v28.2c0 2-1.6 3.7-3.7 3.7-2 0-3.7-1.7-3.7-3.7V75.4z"/></defs><clipPath id="SVGID_6_"><use xlink:href="#SVGID_5_" overflow="visible"/></clipPath><g clip-path="url(#SVGID_6_)"><defs><path id="SVGID_7_" d="M-481.3-496.2h2177.7V1137H-481.3z"/></defs><clipPath id="SVGID_8_"><use xlink:href="#SVGID_7_" overflow="visible"/></clipPath><path clip-path="url(#SVGID_8_)" fill="#c8c9d9" d="M309.9 52.3h72.8v57.8h-72.8z"/></g></g></svg>